<svg xmlns="http://www.w3.org/2000/svg" viewBox="0 0 1922.624 1080"><defs><style>.a{fill:#202637;}.b{fill:rgba(240,43,103,0.25);}.c{fill:rgba(240,43,103,0.75);}</style></defs><rect class="a" width="1920" height="1080"/><path class="b" d="M622.5,1080S596.717,908.125,812.627,828.444s439.9-107.273,516.047-292.625C1464.9,204.244,1922.624,2.57,1922.624,2.57V1080Z"/><path class="c" d="M622.5,973.1S656.247,828.9,850.734,757.13s362.432-72.28,431.028-239.24c58.165-141.572,145.029-238.8,243.195-322.283,108.966-92.669,268.667-168.061,268.667-168.061V973.1Z" transform="translate(126 106.904)"/><path class="c" d="M622.5,820.394s-.36-111.552,163.526-172.033S1155.5,552.977,1213.3,412.286c49.014-119.3,140.547-217.553,223.267-287.9C1528.389,46.295,1609.36,2.57,1609.36,2.57V820.394Z" transform="translate(310.264 259.606)"/><path class="c" d="M622.5,675.321s-.3-91.764,134.518-141.517,303.932-78.463,351.481-194.2c40.319-98.135,115.615-178.962,183.661-236.832C1367.694,38.539,1434.3,2.57,1434.3,2.57V675.321Z" transform="translate(485.322 404.679)"/></svg>